<svg xmlns="http://www.w3.org/2000/svg" viewBox="0 0 294.197 346.058">
  <g>
    <path d="M151.8261,70.8406l-9.13,50.3478S165.913,126.4058,171.13,160.58s-13.0434,58.4348-13.0434,58.4348-22.905,19.1029-33.8615,21.4507l-11.7907,30.4623-18.5218-3.913L99.13,293.3623s-19.8261,8.087-24.2608,4.4348L66,295.4493l-2.087.2608L54,306.4058l1.38,16.3015-6.2608.5217-4.1374-.8806-4.5469-7.073-3.6522,6.7826,2.6087,5.7391,1.0435-3.6522,1.0435,8.3479s-.5218-4.174,1.3043-4.6957l3.9131,12.5217s-1.8261-5.7391,0-6.7826l5.2173,6.7826,9.6522,1.5653,5.4783,2.3478-3.3913-3.3913,9.913,5.2174-2.87-3.9131,8.0869,3.9131s-3.6522-2.6087-3.13-4.1739l8.6087,4.1739-2.6087-3.6522,13.8261,3.6522-4.4348-3.13,15.6522-.2608,25.826-6.7826s36-15.13,45.3913-36,25.0435-44.087,25.0435-44.087L188.87,234.4058s-5.2174-8.87,0-18.2609-.5218-26.0869-.5218-26.0869l21.13-28.1739,3.913-2.087s10.6957-10.4348,22.1739-8.87,16.4348,12,16.4348,12a35.8673,35.8673,0,0,1,2.87,27.13s-1.3044,23.7391-9.9131,31.3043L240,251.8841l4.6957-3.6522-3.13,9.913s7.8143,19.8261,14.7332,20.087l1.9625-22.9565,2.6087-9.3913,2.87,3.13-2.3478-8.4348.7826-2.7826,1.5652,3.6522V230.2319l2.6087,5.4782s-.2608-8.3478-1.8261-8.6087l1.8261-4.6956,3.9131,3.13s-2.87-4.9565-2.87-6.5217l4.1739-17.7391,2.6087,4.4347s-2.6087-10.1739-1.5652-10.9565,6.5217-17.7391,6.5217-17.7391l6.2609-10.9565,5.7391-29.2174s9.3913-35.2174-4.6956-49.3044L267.3913,68.7536,244.4348,50.4928S234,32.7536,219.13,35.3623L200.087,27.7971l-17.7392-3.3913H186s-12-3.3913-13.0435-2.3478l-11.2174-3.9131-9.6521-2.3478,6.5217-3.13-6.2609-1.3044h8.087s-15.6522-8.6087-24.7826-2.6087l-7.8261,1.0435,3.6522-3.169-8.87,2.6473-9.3913.2608h-8.6087l7.3043-2.9081s-9.913-1.3428-11.7391,0c0,0-1.8261-3.8745,5.4783-6.4832,0,0-22.9565-1.3043-27.6522,3.9131L67.0435,11.3623,60,15.2754,52.6957,16.58,35.4783,17.6232,33.6522,19.971s5.7391-1.8261,9.3913.2609L31.5652,25.71l-2.3478,3.3913-5.4783,1.0435L20.3478,34.58l-1.5652,3.13-4.1739,1.8261-1.0435,3.3913-5.4782,6L6.3478,61.71l3.8261,10.174L13.5652,82.058l7.8261,7.5652L0,93.2754s22.1739,5.4782,29.2174,2.3478L9.6522,104.2319S26.87,97.971,29.2174,100.8406L27.13,125.1014S33.913,93.0145,50.087,99.0145L63.13,85.71l16.4348-9.913,7.0435-2.3478,2.087-.5218S92.3478,100.058,111.13,92.7536c0,0-22.1739,2.087-18.7826-21.6522,0,0,10.913,17.4783,27.5,13.0435,0,0-14.4565,1.3044-22.0217-14.6087l19.0435,2.087,16.1739,3.6522L121.8261,70.058Z" transform="translate(0 0)" style="fill: #fff"/>
    <polygon points="77.55 133.646 111.463 148.777 92.151 149.26 72.332 147.212 51.854 157.646 50.68 153.212 51.854 147.212 77.55 133.646" style="fill: #fff"/>
    <polygon points="39.982 168.342 29.547 157.646 30.852 171.794 31.895 168.864 39.982 168.342" style="fill: #fff"/>
    <polygon points="45.072 236.704 71.158 257.313 71.158 263.313 37.506 250.009 33.854 251.313 30.202 254.965 30.202 248.704 34.637 238.791 36.985 242.183 40.637 236.704 45.072 236.704" style="fill: #fff"/>
    <polygon points="56.156 284.378 47.547 292.726 41.286 291.161 39.982 285.683 56.156 284.378" style="fill: #fff"/>
    <polygon points="215.386 221.313 215.386 223.009 213.168 223.009 213.168 225.096 215.386 225.096 215.386 229.53 217.342 229.53 217.342 225.422 219.951 225.422 219.951 223.27 217.995 223.139 217.734 221.313 215.386 221.313" style="fill: #fff"/>
  </g>
</svg>
